<svg id="Capa_1" data-name="Capa 1" xmlns="http://www.w3.org/2000/svg" xmlns:xlink="http://www.w3.org/1999/xlink" viewBox="0 0 381.82 643.75"><defs><style>.cls-1{fill:none;}.cls-2,.cls-3{fill:#fff;}.cls-3{font-size:96.42px;font-family:WellCake-Regular, Well Cake;}.cls-4{clip-path:url(#clip-path);}</style><clipPath id="clip-path"><path class="cls-1" d="M106,515l10,5s15-7,19-6c1-6-2-16,17-20s32-5,37-2l5,3s4-6,14-6,16,3,17,7,2,9,2,9a48.51,48.51,0,0,1,15-6c9-2,22,2,24,3s23-11,23-11l21-37,11-85-5-112-4-33,62.13-52.62L373,109.5,331,51,254,0,173,5,86,45,10,94l1,85,47,54,3,27L38,347,54,477Z"/></clipPath></defs><path class="cls-2" d="M217,113.42a7.63,7.63,0,0,1-2.6,1.17,13.5,13.5,0,0,1-3,.45,15.85,15.85,0,0,1-3.27-.23,15.21,15.21,0,0,1-3.38-1,14.21,14.21,0,0,1-3.25-2,13.26,13.26,0,0,0,4.54-2.86,11.39,11.39,0,0,0,2.64-3.89,10.52,10.52,0,0,0,.74-4.41,12.09,12.09,0,0,0-1.1-4.5,11.45,11.45,0,0,0-4.52-5.23,16.23,16.23,0,0,0-6.71-2.14,32.66,32.66,0,0,0-8.29.29l-.62.1,8.35,28.42c-.22-1.2-.48-2.4-.79-3.59a24.16,24.16,0,0,0,3.44,6.13,17.15,17.15,0,0,0,4.06,3.83,11.15,11.15,0,0,0,4.21,1.72,8.75,8.75,0,0,0,3.93-.14,7.63,7.63,0,0,0,2.86-1.5,8.24,8.24,0,0,0,2.07-2.62,9.76,9.76,0,0,0,1-3.59A13.7,13.7,0,0,0,217,113.42Zm-19-8a6,6,0,0,1-3.66,3.54c-.28-1-.62-2.25-1-3.67s-.8-2.83-1.22-4.24-.81-2.71-1.19-3.9-.68-2.07-.92-2.64a5.28,5.28,0,0,1,2.71,0,6.56,6.56,0,0,1,2.36,1.25A8.67,8.67,0,0,1,196.94,98a9.64,9.64,0,0,1,1.19,2.66A7.91,7.91,0,0,1,198,105.45Z"/><path class="cls-2" d="M188.13,89a13.4,13.4,0,0,0-1.32-1.29,11.54,11.54,0,0,0-5.54-2.41A24.57,24.57,0,0,0,176,85a27,27,0,0,0-6.12,1,20.71,20.71,0,0,0-5.44,2.37,15.83,15.83,0,0,0-4.1,3.63,9.8,9.8,0,0,0-2,4.83,9.12,9.12,0,0,0,.26,4.07A8,8,0,0,0,160.3,104a7.75,7.75,0,0,0,2.79,1.92,7.91,7.91,0,0,0,3.35.58,8.69,8.69,0,0,0,4.28-1.49,10.94,10.94,0,0,0,3.66-4.41A7.28,7.28,0,0,1,172,98.57a4.27,4.27,0,0,1-.77-2.14,3.94,3.94,0,0,1,3.55-4,3.15,3.15,0,0,1,1.49.33A3.48,3.48,0,0,1,177.63,94a71.72,71.72,0,0,1-3.31,9.85,40.75,40.75,0,0,1-3.95,7.31,19.33,19.33,0,0,1-4.33,4.6,8.24,8.24,0,0,1-4.43,1.71,6.17,6.17,0,0,1-2-.27,7.71,7.71,0,0,0-.58,1.9,8,8,0,0,0-.1,1.75,5.92,5.92,0,0,0,.81,2.79,6.56,6.56,0,0,0,1.94,2.09,9,9,0,0,0,2.7,1.25,9.84,9.84,0,0,0,3.14.34,11.09,11.09,0,0,0,3.2-.64,11.31,11.31,0,0,0,3-1.65,12,12,0,0,0,2.57-2.73,14.16,14.16,0,0,0,1.84-3.89,10.81,10.81,0,0,0,1.26.12c.48,0,1,0,1.51,0,1,0,2-.15,3.08-.3a22.22,22.22,0,0,0,2.95-.6q1.69,4.59,4.36,6.48a8.6,8.6,0,0,0,5.49,1.77,8.4,8.4,0,0,0,2.1-.36ZM182.22,110a11.09,11.09,0,0,1-2.36.12l2.12-7.16,2.52,6.57C183.69,109.69,182.93,109.85,182.22,110Z"/><text class="cls-3" transform="translate(11.99 585.1) rotate(-8.62)">realifood</text><g class="cls-4"><path class="cls-2" d="M366.91,136.36l-.09.2.16.15c.68,7.27.52,14.48-1.57,21.55a28.46,28.46,0,0,0-3.06,6.88l0,0a106.19,106.19,0,0,1-9.71,14.4c-6.39,7.67-14,14-21.75,20.16-2.57,1.52-5.2,2.93-7.69,4.57-8.4,5.53-17.83,9-26.75,13.45-11.51,4-23.08,7.82-34.83,11-4.81,1.31-9.65,2.54-15.27,4,19.82,7.35,35.28,19.05,47.07,35.5,6.53,9.11,10.78,19.33,14.14,29.95A225.71,225.71,0,0,1,312.36,329l0,21.12c-1.1,15.82-2.07,31.64-3.74,47.41-.76,7.2-2,14.33-2.9,21.48-.79,6-.74,12.18-1.7,18.23-3.82,23.88-15,42.59-37.36,53.55-1.68.82-2.15,2.16-2.66,3.76a698.88,698.88,0,0,1-29.11,76.14c-4.25,9.4-9,18.59-13.47,27.87l0,0c-3.63,5.53-6.63,11.41-9.72,17.25l-7,11.3c-.88.44-.85,1.39-1.2,2.13-1.6,2.19-3.07,4.49-4.81,6.57-8.66,10.37-20.89,11-29.4-.49-1-1.27-1.56-2.81-3-3.63a11.75,11.75,0,0,0-2.78-3.74c-.56-2.7-2.13-4.84-3.82-6.92-3.11-5.4-6.38-10.72-9.29-16.22-5-9.49-9.93-19-14.19-28.9-4.47-10.39-9.53-20.56-13.44-31.15-6.17-16.7-12.59-33.33-17.91-50.35a4.3,4.3,0,0,0-2.46-3C78.71,480.51,67.12,461,64.07,436c-1.51-12.34-2-24.81-3.47-37.18-1.85-15.58-3.49-31.2-4.7-46.84-.59-7.55-.08-15.2.1-22.8.08-3.23-.81-6.49,0-9.68,1.18-4.6,1.51-9.3,2.1-14,1.08-.54,1-1.69,1.19-2.58A107.29,107.29,0,0,1,73.2,269c2.73-3.72,5.58-7.32,8.57-10.85,3.73-4.42,8.75-7.38,12.33-11.86,4-1.54,7.2-4.42,11-6.19,2-.91,2.31-2.07,2-4.11-1.28-8.64-2.47-17.3-3.45-26-.32-2.83-1.28-3.61-4-2.78a62.25,62.25,0,0,1-6.58,1.31c-3.07-.05-6.26,1.11-9.09.64-4.68-.77-9.39-.42-14-1.16-.42-.43-.77-1.15-1.26-1.26-8.09-1.81-15.29-5.77-22.66-9.32l0,0c-.38-1.58-2.15-1.35-3-2.32l0,0c-.66-1.32-1.93-2-3.09-2.71C29.94,183.27,21.41,173,16.93,159.82c-.1-.29-.53-.47-.81-.7a7.17,7.17,0,0,0-.29-3.31c-3.91-12.78-3.55-25.65-.77-38.56l2.52-8.16.44-.92.21,0,.05-.22c7.52-15.65,18.59-27.74,34.8-34.64a62.78,62.78,0,0,1,28.42-5.1A4.58,4.58,0,0,0,86,66.29c2.07-2.64,4.36-5.1,6.56-7.63a7.5,7.5,0,0,0,3.06-2.82l.05,0A123.07,123.07,0,0,1,112,45.4l13-4.58c5.93-.47,11.77-1.68,17.78-1.69,14.11,0,27.15,3.4,38.86,11.27,2.84,1.91,3.95,1.14,5.08-1.47a80.44,80.44,0,0,1,20.92-29.16.55.55,0,0,0,.56-.4c7.24-5.26,15-8.72,24.26-8.7,13.79,0,23,6.87,29.17,18.58,3.42,6.49,4.95,13.54,5.67,20.79.22,2.23.44,4.46.71,7.17,5-2.8,9.54-5.91,14.67-7.75,11.95-4.3,23.77-5.39,35.16,1.73,3.88,2.42,6.54,5.94,8.79,9.82,2.61,4.14,3.64,8.8,4.51,13.52l0,9.65L331,86.69a125.07,125.07,0,0,1-9.88,28.59c7.7-1.38,14.76-2.36,21.89-1.16l.88.09c1.65.64,3.18,1.66,5,1.64,5.18,2.59,10,5.66,13.44,10.45Q364.62,131.33,366.91,136.36ZM238.84,30.07l-.86-.55-1.1-.15c-2.72-1.3-5.51-1.07-8.38-.53-11.7,2.21-23.28,18.6-25.11,28.2l6.13-1.51c2-.12,3.93-.37,5.9-.35,4,0,8.31.76,10.06-4.41.1-.32.47-.56.74-.82a1.92,1.92,0,0,1,2.34-.57,1.57,1.57,0,0,1,.71,2.23c-2.56,4.82.83,5.15,4.15,5.72,2.06.35,4.07,1,6.11,1.47,2.87,1.42,5.73,2.86,8.61,4.26,1.75.85,1.79-.33,1.84-1.57a52.87,52.87,0,0,0-3.42-21.85c-1.52-3.79-3.24-7.83-7.62-9.51Zm-9.15,381c3.39,1.18,6.84,2.22,10.15,3.58a8.39,8.39,0,0,0,7.1,0c4.82-2.09,10-2.95,15.19-3.58,4.07-.49,8.2-.82,12-2.61s4.8-4.23,3.88-8.07c-.75-3.31-3.14-5.31-5.83-6.92-6.6-4-13.79-4.72-21.23-3.3-12,2.29-21.46,8.43-28.06,19.22C225.45,409.9,227.37,411.26,229.69,411.1Zm78.8-344-1.05-.66c-4.36-3.4-9.34-2.89-14.24-2-8.42,1.49-15.45,5.95-22.11,11-4.5,3.42-4.48,3.91-.25,8.06,1.85,4.08,4.93,7.48,6.43,11.74,5.85,10.88,6.88,22.82,7.36,35.27a36.54,36.54,0,0,0,9.79-8.12,79.45,79.45,0,0,0,14.27-22.56c2.95-7.38,5.11-14.86,4.28-22.87C312.59,73.21,311.73,69.54,308.49,67.05Zm37.38,68.09c-1.68-2.78-4.56-3.3-7.37-3.68-11.43-1.56-21.93,1.31-31.82,6.9-1.61-.2-2.89.69-4.21,1.36A137.17,137.17,0,0,0,284.89,151c-3.12,2.23-6.63,4.18-8.65,7.59A72.21,72.21,0,0,1,267,171.19c-4.73,5.1-9.69,10-15.78,13.49a72.56,72.56,0,0,1-18.84,7.89c-1.35.33-2.62,1-2.34,2.84,1.23,8.13,2.44,16.27,3.71,24.78,3-3,5.71-5.6,8.23-8.33,11.79-12.81,25.39-23.53,39.25-33.93,6.35-4.76,13-9.07,19.56-13.59,5.57-3.21,11.11-6.44,16.7-9.61,1.45-.81,3.13-1.45,4.29.4s-.44,2.57-1.7,3.41c-5.18,3.44-10.33,6.92-15.5,10.39-1.2.87-2.38,1.78-3.61,2.62C285,182.5,269.57,194,256.27,208.13c-.81.86-2.51,1.6-1.95,2.87.66,1.49,2.44.6,3.73.65a6.66,6.66,0,0,0,2.18-.47c6.72-2.14,13.45-4.2,20.12-6.5,14.43-5,28.29-10.86,40.73-19.84,10.54-7.6,19.93-16.28,25.42-28.3,3.05-6.67,4.95-13.67.14-20.55ZM85,448h0c5.38,16.1,16.67,26,32.7,30.56,14.58,4.15,29,1.88,43.11-2.43,3.59-1.09,7.27-2.15,10.56-4.63-.71-.6-1.16-1-1.63-1.4-10-8.17-18.85-17.15-21.21-30.6-.29-1.69-1.27-1.55-2.45-1.25L135.21,441c-5.46.26-10.91,1.84-16.39.13-1.4-1-2.82-2-4.19-3.06a11.88,11.88,0,0,1-4.49-6.27c-.7-2.49-.38-3.93,2.77-4.17a79.33,79.33,0,0,0,12.93-2c2.45-.6,6.41.94,7-2.74.47-2.7-1.27-5.49-3-7.84a1,1,0,0,0-.32-.19c-5.85-9.92-18.42-14.47-31-11.24-10,2.56-16.06,9.37-17.29,19.53A46.76,46.76,0,0,0,84,445.8C84.22,446.58,84.07,447.51,85,448ZM249.18,434a25.74,25.74,0,0,1-7.31-1.32c-6.89-2.14-13.76-4.37-20.73-6.19-15.55-4-31.22-7.59-47.4-7.85-4.57-.08-6.31,1.39-7.59,5.95-3.51,9.57-.74,17.88,6,24.7A100.67,100.67,0,0,0,231,478.79c36.65,5.13,60.82-26.52,55.11-60.13-3.45,3.69-7.44,6.21-12.2,7-4.05.66-8.18.86-12.27,1.25-1.08.1-2.08-.06-2.86,1.21C256.62,431.64,253,433.1,249.18,434Zm-101,123.05c2,4.65,3.86,9.34,6,13.93.68,1.47.87,3.45,2.88,4-.21,2.56,1.51,4.46,2.29,6.68a316.67,316.67,0,0,0,20.58,36.94c.39.75.72,1.53,1.16,2.24,2.06,3.29,3.89,3.3,6,.1,1-1.43,2-2.79,3-4.22,6.81-10.12,12.44-20.89,17.93-31.78,7-13.93,13.83-28,19.57-42.46,3-7.54,5.92-15.08,8.79-22.66,2.49-6.56,4.87-13.17,7.22-19.79.66-1.86.7-3.43-2.14-3.35a74,74,0,0,1-14-1.18,105.73,105.73,0,0,1-25.62-7.29c-6.05-2.64-11.73-5.24-18.9-1.87a119.39,119.39,0,0,1-55.58,11.31c-1.55-.06-2,.34-1.44,1.53,1.33,3.07,1.6,6.51,3.35,9.42l.93,2.19c1.41,5.47,3.76,10.6,5.83,15.83,1.19,4.93,3.31,9.54,5.17,14.22,1.49,3.76,2.35,7.84,5.17,11C146.44,553.78,146.74,555.63,148.15,557.08Zm44-333.57c6.45.53,12.91,1.12,19.37,1.57,5.1.35,5,.28,4.29-4.89-1.88-12.84-3.62-25.69-5.58-38.51-.51-3.32-.21-5,3.85-4.77a47,47,0,0,0,15.51-2.14,48.58,48.58,0,0,0,26.74-19.24c.9-1.3-.37-3.15,1.56-3.84s2.46-2.35,3.23-3.9c9.32-18.86,5.89-43.32-8.38-58.73-7.86-8.48-17.19-14.33-29.08-15.2l-1.84-.36a3.09,3.09,0,0,0-2.61-.41c-9-.77-17.65.65-25.62,5.19-2,1.17-4.33,3.52-6.09,3.18s-3-3.39-4.46-5.22c-24.9-30.76-73.11-23.53-88,9.6-.86,1.91-1.69,1.9-3.34,1.5a50.65,50.65,0,0,0-24.47-.23c-30.68,7.53-42.45,40.31-32.61,67,.4,1.17.73,2.38,1.22,3.51,12.61,28.77,45,40.93,74.11,27.86,2.65-1.2,5.1-3.07,8.22-3q3.46,24.65,6.95,49.38a174.9,174.9,0,0,1,18-4.51A227,227,0,0,1,192.16,223.51ZM74.79,345.42c0,2.39,0,4.77,0,7.16q.75,9.51,1.51,19c.76,8,1.53,16,2.35,24.67A87.3,87.3,0,0,1,89.53,389c1.34-.3,2.69-.53,4-.9a48.08,48.08,0,0,1,24.78,0c11.05,2.76,19.34,9.47,25.54,18.82,1.19,1.8,2.22,1.93,3.91,1.06,7.58-3.9,15.78-5.24,24.17-5.63a117.51,117.51,0,0,1,32,2.57,2.91,2.91,0,0,0,3.55-1.25c1.06-1.66,2.15-3.32,3.36-4.88,9.4-12.06,21.11-20.49,36.36-23.67,7.5-1.57,14.86-.89,22.27.23,8.16,4.1,15.92,8.7,20.71,17.56,2.82-6.42,2.36-12.77,2.66-18.63.91-17.77,2.64-35.57.72-53.44A90.88,90.88,0,0,0,282,284.26a75.59,75.59,0,0,0-19.71-22.39A87.49,87.49,0,0,0,215.47,244a22.68,22.68,0,0,0-2.87-.71,233.74,233.74,0,0,0-57.24.1c-4.29.71-8.59,1.33-12.86,2.13-23.34,4.37-42.49,15.27-55.36,35.79-9.09,14.5-11.71,30.75-12.44,47.46A135.69,135.69,0,0,0,74.79,345.42Z"/><path class="cls-2" d="M34.6,154.14c2.06-4.27,1.38-8.92,1.91-13.88,4.1,5.44,7.9,10.67,13.65,13.94,12.62,7.19,25.89,8.3,39.78,4.55a55.63,55.63,0,0,0,22.62-12,4.62,4.62,0,0,1,5.7-.81c15.52,7.18,30.93,6,46.28-.63a49.1,49.1,0,0,0,14.92-9.83,4.52,4.52,0,0,1,5.65-1.06c16.34,6.87,31.45,4.29,45.24-6.44,14.44-11.24,15.18-33,2.08-46.81-2.69-2.83-6.63-4-8.76-7.34,11.89.87,21.22,6.72,29.08,15.2,14.27,15.41,17.7,39.87,8.38,58.73-.77,1.55-1.41,3.26-3.23,3.9s-.66,2.54-1.56,3.84a48.58,48.58,0,0,1-26.74,19.24,47,47,0,0,1-15.51,2.14c-4.06-.18-4.36,1.45-3.85,4.77,2,12.82,3.7,25.67,5.58,38.51.75,5.17.81,5.24-4.29,4.89-6.46-.45-12.92-1-19.37-1.57-.77-6.43-1.55-12.86-2.3-19.29a5.3,5.3,0,0,0-3-4c-4.07-2.18-8.09-4.61-12.41-6.13-18.21-6.41-37.19-9.25-56.26-11.55-3.12-.06-5.57,1.81-8.22,3-29.08,13.07-61.5.91-74.11-27.86C35.33,156.52,35,155.31,34.6,154.14Z"/><path class="cls-2" d="M129.18,508.66c-1.75-2.91-2-6.35-3.35-9.42-.51-1.19-.11-1.59,1.44-1.53a119.39,119.39,0,0,0,55.58-11.31c7.17-3.37,12.85-.77,18.9,1.87a105.73,105.73,0,0,0,25.62,7.29,74,74,0,0,0,14,1.18c2.84-.08,2.8,1.49,2.14,3.35-2.35,6.62-4.73,13.23-7.22,19.79-2.87,7.58-5.82,15.12-8.79,22.66C221.81,557.05,215,571.07,208,585c-5.49,10.89-11.12,21.66-17.93,31.78-1,1.43-2,2.79-3,4.22-2.16,3.2-4,3.19-6-.1-.44-.71-.77-1.49-1.16-2.24,1.81-1.24,1.52-3.48,2.47-5.16,4.94-8.69,8.36-18.07,11.89-27.38,1.66-4.4,1.42-4.54-3.18-4.69-1.49,0-3-.34-4.46-.4-8.08-.35-16.17-.73-24.25-.92-1,0-3-.71-3.05,1.61-.78-2.22-2.5-4.12-2.29-6.68,2.39-1.44,5.56.26,7.76-1.94a9,9,0,0,0,3.6.83c9.24,0,18.47-.1,27.7,0,2.27,0,3-1.11,3.56-3,2.19-7.12,4.58-14.19,6.71-21.33,2.32-7.76,4.43-15.58,6.65-23.37.81-2.83.09-4.15-3.14-4.12-3.47,0-6.92-.65-10.42-.73-16.72-.37-33.38.74-50,1.59-4.25.21-6.58-1.52-7.62-5.46a35.12,35.12,0,0,0-1.3-3.91c-.77-2-1.09-3.67,2-3.95-.4-.37-.49-.52-.56-.52-1,.11-2,.25-3,.37C135.66,509.15,132.36,509.62,129.18,508.66Zm50.71,1.82c4.59.77,9.2.31,13.82.82,6.93.77,13.95.17,20.93.89,3.72.38,2.39-3.33,2.66-5,.31-2-1.86-1.18-3.09-1.08-4.72.37-9.43.74-14.14,1.17C193.29,507.86,186.5,508.51,179.89,510.48Z"/><path class="cls-2" d="M269.49,375.26c-.29-8.41-.29-8.41-8.62-10.28-2.67-.6-5.34-1.21-8-1.73a66.63,66.63,0,0,1-7.95-1.76c6-1.88,12-1.34,18.1-1.08,2,.08,4.68,2.07,5.65-1.21,1.43-4.79-.18-7.84-3.59-9.28-7-3-14.63-3.86-21.86-6.07-1.36-.41-2.28-1.47-3.63-1.73-.07-2.57-.13-5.13-.2-7.7,6.18-1,12.19.21,18.06,1.8,10.85,2.93,11.18,2.95,9.68-7.9a174,174,0,0,0-7.25-32.41,5.74,5.74,0,0,0-4.64-4.17,408.21,408.21,0,0,0-45.23-8c-6.41-.81-12.84-1.51-19.26-2.31a7.22,7.22,0,0,1-2.76-1,218.74,218.74,0,0,1,40.85-.72c7.32.46,14.58,1.68,21.87,2.53.84.09,2,.38,2.46-.39.64-1-.27-1.85-.77-2.68a84.06,84.06,0,0,0-20.74-23.84c-4.24-3.25-8.49-6.56-13.32-8.94a6.38,6.38,0,0,1-2.85-2.29,87.49,87.49,0,0,1,46.85,17.85A75.59,75.59,0,0,1,282,284.26a90.88,90.88,0,0,1,11.55,36.49c1.92,17.87.19,35.67-.72,53.44-.3,5.86.16,12.21-2.66,18.63C285.41,384,277.65,379.36,269.49,375.26Z"/><path class="cls-2" d="M138.89,509.54c1-.12,2-.26,3-.37.07,0,.16.15.56.52-3.05.28-2.73,2-2,3.95a35.12,35.12,0,0,1,1.3,3.91c1,3.94,3.37,5.67,7.62,5.46,16.67-.85,33.33-2,50-1.59,3.5.08,7,.75,10.42.73,3.23,0,3.95,1.29,3.14,4.12-2.22,7.79-4.33,15.61-6.65,23.37-2.13,7.14-4.52,14.21-6.71,21.33-.57,1.85-1.29,3-3.56,3-9.23-.1-18.46,0-27.7,0a9,9,0,0,1-3.6-.83c-4.44-3.12-6.37-7.93-7.51-12.8-.81-3.48-2.66-3.39-5.06-2.95-1.42.26-2.77,1.29-4-.27-1.41-1.45-1.71-3.3-1.87-5.2,1.22-2.53,3.72-1.22,5.58-1.81s2.32-.94.86-2.61c-3.17-3.66-4.23-8.32-5.7-12.77-.36-1.11-.36-2,1-2.23a8.13,8.13,0,0,0,5.23-1.3,3,3,0,0,0,.74-.06l20.38-1.87c-6.94-2.8-14-2.74-21.14-2.51l-17.29,0c-2.07-5.23-4.42-10.36-5.83-15.83C132.92,509.62,136.08,510.78,138.89,509.54Z"/><path class="cls-2" d="M164.54,256.75c-7.78,1.78-15.81,2-23.53,4.22-15.74,4.45-29.14,12-37.15,27a31.34,31.34,0,0,0-2.3,5.45c-1.08,3.52.24,5.28,3.9,5.24,5.24-.05,10.47-.28,15.71-.39a31.84,31.84,0,0,1,3.37.37c-5.27,2.35-10.18,2.91-14.85,4.24-1.32.37-2.68.61-4,1-8.12,2.32-8,2.34-9.19,10.67-.48,3.49.22,6.16,3.88,7.61-7.74,2.68-15.73,3.45-23.13,6.4a8.93,8.93,0,0,1-2.56.21c.73-16.71,3.35-33,12.44-47.46,12.87-20.52,32-31.42,55.36-35.79,4.27-.8,8.57-1.42,12.86-2.13-.06.74-.15,1.49-.17,2.23-.16,6.55,1.31,8,7.95,8,5.46,0,10.92.06,16.38.1,0,.5,0,1,0,1.51l-4.39.12c-2.31,0-4.61-.09-6.92,0C166.85,255.37,165.14,254.73,164.54,256.75Z"/><path class="cls-2" d="M159.28,581.72c.05-2.32,2-1.63,3.05-1.61,8.08.19,16.17.57,24.25.92,1.49.06,3,.36,4.46.4,4.6.15,4.84.29,3.18,4.69-3.53,9.31-6.95,18.69-11.89,27.38-1,1.68-.66,3.92-2.47,5.16A316.67,316.67,0,0,1,159.28,581.72Z"/><path class="cls-2" d="M112,378.11a82.44,82.44,0,0,0-20.9,8.07c-.82.43-2.56,1-1.54,2.77a87.3,87.3,0,0,0-10.83,7.32c-.82-8.63-1.59-16.65-2.36-24.67,6.28-2.23,12.52-4.59,19.18-5.6,2-.31,2.92-.07,3.16,2.17a12.43,12.43,0,0,0,2.8,6.37c.07,2.47,2,1.83,3.45,2.2C107.26,377.32,110.09,375.36,112,378.11Z"/><path class="cls-2" d="M154,531.1a3,3,0,0,1-.74.06,6.64,6.64,0,0,0-5.23,1.3c-1.36.28-1.36,1.12-1,2.23,1.47,4.45,2.53,9.11,5.7,12.77,1.46,1.67.93,2-.86,2.61s-4.36-.72-5.58,1.81c-2.82-3.14-3.68-7.22-5.17-11-1.86-4.68-4-9.29-5.17-14.22l17.29,0c.36,1.62,2.31,1.25,3.08,2.45C155.72,530,154.1,529.7,154,531.1Z"/><path class="cls-2" d="M148.15,557.08c1.26,1.56,2.61.53,4,.27,2.4-.44,4.25-.53,5.06,2.95,1.14,4.87,3.07,9.68,7.51,12.8-2.2,2.2-5.37.5-7.76,1.94-2-.58-2.2-2.56-2.88-4C152,566.42,150.12,561.73,148.15,557.08Z"/><path class="cls-2" d="M95.49,345.12c-7,2.23-14,4.34-20.65,7.46,0-2.39,0-4.77,0-7.16A76.16,76.16,0,0,1,88,342.18c2.56-.27,5.4,1.07,7.59-1.33l1.45-.13c2.24.48,4.68-.53,7.63.92C100.91,342.42,97.57,342.25,95.49,345.12Z"/><path class="cls-2" d="M138.89,509.54c-2.81,1.24-6,.08-8.78,1.31l-.93-2.19C132.36,509.62,135.66,509.15,138.89,509.54Z"/><path class="cls-2" d="M221.83,73.5a2.28,2.28,0,0,1-2.61-.41A3.09,3.09,0,0,1,221.83,73.5Z"/><path class="cls-2" d="M84,445.8c1.07.39,1.13,1.23,1,2.17C84.07,447.51,84.22,446.58,84,445.8Z"/><path class="cls-2" d="M238.84,30.07l-.86-.55Z"/><path class="cls-2" d="M224.38,344.41c0-4.63-3.25-4.9-6.74-5.28-18.17-2-36.4-3.09-54.66-3.9-4.73-.21-9.55-.27-15.39-.88,3.64-2,6.66-2.15,9.47-2.45,12.36-1.32,24.76-3,37.19-2.23,8.06.53,16.17,0,24.21,1.17a50.3,50.3,0,0,0,7.47,0C223.44,335.16,224.83,339.89,224.38,344.41Z"/><path class="cls-2" d="M127.86,339.74c.18-1.7.28-3.56.61-5.39a6.75,6.75,0,0,1,7.23-6c4.27.07,6.44,1.86,7.17,6a32.2,32.2,0,0,1,.22,10.77c-.65,4-3.15,6.23-7,6.35-4.21.14-6.85-1.9-7.59-6C128.13,343.64,128.06,341.77,127.86,339.74Z"/><path class="cls-2" d="M224.38,344.41c.45-4.52-.94-9.25,1.55-13.54,5.38-4.57,10.42-3.24,13.44,3.55.07,2.57.13,5.13.2,7.7-.53,5.92-2,8.2-5.93,9.16C228.67,352.49,225.35,350,224.38,344.41Z"/><path class="cls-2" d="M152.18,371c21.75-4.45,43.48-4.24,65.25-.47C195.71,374.19,173.93,373.14,152.18,371Z"/><path class="cls-2" d="M95.49,345.12c2.08-2.87,5.42-2.7,9.19-3.48-3-1.45-5.39-.44-7.63-.92,6.16-2.28,12.54-1.4,18.92-1.17C109.05,341.07,102.56,344.14,95.49,345.12Z"/><path class="cls-2" d="M175.11,255.33l4.39-.12c5.51-.36,11.09.87,16.54-.76l9.16.92v.6H180.88C179,255.82,176.92,256.57,175.11,255.33Z"/><path class="cls-2" d="M112,378.11c-1.88-2.75-4.71-.79-7-1.37-1.46-.37-3.38.27-3.45-2.2,5.25,2.07,10.85.61,16.61,1.62C115.91,377.21,114.2,378.41,112,378.11Z"/><path class="cls-2" d="M175.11,255.33c1.81,1.24,3.84.49,5.77.64a105,105,0,0,1-16.34.78c.6-2,2.31-1.38,3.65-1.43C170.5,255.24,172.8,255.32,175.11,255.33Z"/><path class="cls-2" d="M196,254.45c-5.45,1.63-11,.4-16.54.76,0-.51,0-1,0-1.51C185.08,252.85,190.51,254.69,196,254.45Z"/><path class="cls-2" d="M95.6,340.85c-2.19,2.4-5,1.06-7.59,1.33A14.49,14.49,0,0,1,95.6,340.85Z"/><path class="cls-2" d="M179.89,510.48c6.61-2,13.4-2.62,20.18-3.24,4.71-.43,9.42-.8,14.14-1.17,1.23-.1,3.4-1,3.09,1.08-.27,1.71,1.06,5.42-2.66,5-7-.72-14-.12-20.93-.89C189.09,510.79,184.48,511.25,179.89,510.48Z"/><path class="cls-2" d="M154,531.1c.11-1.4,1.73-1.06,2.32-1.93-.77-1.2-2.72-.83-3.08-2.45,7.11-.23,14.2-.29,21.14,2.51Z"/><path class="cls-2" d="M148,532.46a6.64,6.64,0,0,1,5.23-1.3A8.13,8.13,0,0,1,148,532.46Z"/><path class="cls-2" d="M304.79,145c-.5-.12-.67.09-.57.58Z"/></g></svg>